<svg xmlns="http://www.w3.org/2000/svg" version="1.1" xmlns:xlink="http://www.w3.org/1999/xlink" xmlns:svgjs="http://svgjs.dev/svgjs" width="1500" height="1500" viewBox="0 0 1500 1500"><rect width="1500" height="1500" fill="#000000"></rect><g transform="matrix(0.6666666666666666,0,0,0.6666666666666666,249.39393939393938,438.5856950067477)"><svg viewBox="0 0 396 247" data-background-color="#ffffff" preserveAspectRatio="xMidYMid meet" height="935" width="1500" xmlns="http://www.w3.org/2000/svg" xmlns:xlink="http://www.w3.org/1999/xlink"><g id="tight-bounds" transform="matrix(1,0,0,1,0.2400000000000091,-0.09999999999999432)"><svg viewBox="0 0 395.52 247.2" height="247.2" width="395.52"><g><svg></svg></g><g><svg viewBox="0 0 395.52 247.2" height="247.2" width="395.52"><mask id="602e08dc-8624-442e-a9dd-e68d4e47273a"><rect width="640" height="400" fill="white"></rect><g transform="matrix(1,0,0,1,39.55199999999999,97.64964797570897)"><svg viewBox="0 0 316.416 51.90070404858206" height="51.90070404858206" width="316.416"><g><svg viewBox="0 0 316.416 51.90070404858206" height="51.90070404858206" width="316.416"><g><svg viewBox="0 0 316.416 51.90070404858206" height="51.90070404858206" width="316.416"><g><svg viewBox="0 0 316.416 51.90070404858206" height="51.90070404858206" width="316.416"><g id="SvgjsG1010"><svg viewBox="0 0 316.416 51.90070404858206" height="51.90070404858206" width="316.416" id="SvgjsSvg1009"><g><svg viewBox="0 0 316.416 30.290978713819126" height="30.290978713819126" width="316.416"><g transform="matrix(1,0,0,1,0,0)"><svg width="316.416" viewBox="-0.5 -39 444.91 43.5" height="30.290978713819126" data-palette-color="#0d2438"><path d="M15.65-26.3L19.75-10.85 20.05-10.85 24.15-26.3Q25.45-31.3 28.15-33.15 30.85-35 36.3-35L36.3-35 36.3 0 31.6 0 31.6-29.7Q30.3-29.15 29.63-28.15 28.95-27.15 28.35-25.15L28.35-25.15 22.1-3.7 17.7-3.7 11.4-25.15Q10.8-27.2 10.15-28.18 9.5-29.15 8.2-29.7L8.2-29.7 8.2 0 3.5 0 3.5-35Q8.95-35 11.63-33.13 14.3-31.25 15.65-26.3L15.65-26.3ZM45.55-20.85L45.55-20.85Q49.05-24.5 54.3-24.5L54.3-24.5Q56.85-24.5 59.07-23.53 61.3-22.55 62.97-20.85 64.65-19.15 65.6-16.88 66.55-14.6 66.55-12L66.55-12Q66.55-9.4 65.62-7.13 64.7-4.85 63.05-3.15 61.4-1.45 59.15-0.48 56.9 0.5 54.3 0.5L54.3 0.5Q51.65 0.5 49.42-0.48 47.2-1.45 45.55-3.15 43.9-4.85 42.97-7.13 42.05-9.4 42.05-12L42.05-12Q42.05-17.3 45.55-20.85ZM54.3-20.3L54.3-20.3Q50.8-20.3 48.67-18 46.55-15.7 46.55-12 46.55-8.3 48.67-6 50.8-3.7 54.3-3.7L54.3-3.7Q57.85-3.7 59.95-6.03 62.05-8.35 62.05-12 62.05-15.65 59.95-17.98 57.85-20.3 54.3-20.3ZM71.8-35L76.2-35 76.2-24 80.45-24Q86-24 88.4-22.35L88.4-22.35Q90.55-20.9 91.12-18.88 91.7-16.85 91.7-13.55L91.7-13.55 91.7 0 87.3 0 87.3-13.5Q87.3-14.4 87.25-15.03 87.2-15.65 86.9-16.63 86.6-17.6 86.05-18.23 85.5-18.85 84.45-19.33 83.4-19.8 81.9-19.8L81.9-19.8 76.2-19.8 76.2 0 71.8 0 71.8-35ZM111.04-14.1L111.04-14.1 111.04-9.6Q109.14-11.05 106.39-11.05L106.39-11.05Q104.04-11.05 102.74-10.13 101.44-9.2 101.44-7.5L101.44-7.5Q101.44-4.2 106.34-4.2L106.34-4.2 112.94-4.2 112.94-13.75Q112.94-19.8 107.04-19.8L107.04-19.8 99.04-19.8 99.04-24 107.29-24Q112.14-24 114.74-21.6 117.34-19.2 117.34-14.7L117.34-14.7 117.34 0 106.19 0Q101.94 0 99.44-1.9 96.94-3.8 96.94-7.45 96.94-11.1 99.59-13 102.24-14.9 106.24-14.9L106.24-14.9Q108.49-14.9 111.04-14.1ZM123.09 0L123.09-24 145.14-24Q148.69-24 150.79-22.65L150.79-22.65Q152.94-21.3 153.62-19.15 154.29-17 154.29-14L154.29-14 154.29 0 149.89 0 149.89-14Q149.89-17.9 147.54-19.15L147.54-19.15Q146.34-19.8 142.69-19.8L142.69-19.8 140.64-19.8 140.64 0 136.24 0 136.24-19.8 127.49-19.8 127.49 0 123.09 0ZM160.54 0L160.54-24 182.59-24Q186.14-24 188.24-22.65L188.24-22.65Q190.39-21.3 191.06-19.15 191.74-17 191.74-14L191.74-14 191.74 0 187.34 0 187.34-14Q187.34-17.9 184.99-19.15L184.99-19.15Q183.79-19.8 180.14-19.8L180.14-19.8 178.09-19.8 178.09 0 173.69 0 173.69-19.8 164.94-19.8 164.94 0 160.54 0ZM211.09-14.1L211.09-14.1 211.09-9.6Q209.19-11.05 206.44-11.05L206.44-11.05Q204.09-11.05 202.79-10.13 201.49-9.2 201.49-7.5L201.49-7.5Q201.49-4.2 206.39-4.2L206.39-4.2 212.99-4.2 212.99-13.75Q212.99-19.8 207.09-19.8L207.09-19.8 199.09-19.8 199.09-24 207.34-24Q212.19-24 214.79-21.6 217.39-19.2 217.39-14.7L217.39-14.7 217.39 0 206.24 0Q201.99 0 199.49-1.9 196.99-3.8 196.99-7.45 196.99-11.1 199.64-13 202.29-14.9 206.29-14.9L206.29-14.9Q208.54-14.9 211.09-14.1ZM241.63-4.2L241.63-35 246.13-35 246.13 0 234.38 0Q228.93 0 225.53-3.48 222.13-6.95 222.13-12.25L222.13-12.25Q222.13-17.45 225.66-20.98 229.18-24.5 234.03-24.5L234.03-24.5Q237.13-24.5 239.83-23L239.83-23 239.83-18.5Q237.33-20.3 234.03-20.3L234.03-20.3Q231.03-20.3 228.96-18.07 226.88-15.85 226.88-12.25L226.88-12.25Q226.88-8.6 228.86-6.4 230.83-4.2 234.38-4.2L234.38-4.2 241.63-4.2ZM268.23-12.8L268.23 0 263.78 0 263.78-22Q263.78-27.4 267.25-31.2 270.73-35 276.23-35L276.23-35 287.68-35 287.68 0 282.98 0 282.98-30.6 276.23-30.6Q272.58-30.6 270.4-28.45 268.23-26.3 268.23-21.6L268.23-21.6 268.23-17.35Q271.03-20.3 276.23-20.3L276.23-20.3 280.78-20.3 280.78-15.9 276.23-15.9Q273.33-15.9 271.5-15.2 269.68-14.5 268.23-12.8L268.23-12.8ZM294.18-12L294.18-35 298.68-35 298.68-12Q298.68-8.05 300.7-5.88 302.73-3.7 306.28-3.7L306.28-3.7Q309.98-3.7 312.07-5.83 314.18-7.95 314.18-12L314.18-12Q314.18-15.85 311.9-18.07 309.63-20.3 305.93-20.3L305.93-20.3Q302.78-20.3 300.48-18.5L300.48-18.5 300.48-23Q303.23-24.5 306.43-24.5L306.43-24.5Q311.73-24.5 315.2-21.08 318.68-17.65 318.68-12L318.68-12Q318.68-6.05 315.05-2.78 311.43 0.5 305.93 0.5L305.93 0.5Q300.68 0.5 297.43-2.9 294.18-6.3 294.18-12L294.18-12ZM343.82-24L343.82 0 335.17 0Q329.62 0 327.22-1.65L327.22-1.65Q325.07-3.1 324.5-5.13 323.92-7.15 323.92-10.45L323.92-10.45 323.92-24 328.32-24 328.32-10.5Q328.32-9.6 328.37-8.97 328.42-8.35 328.72-7.38 329.02-6.4 329.57-5.78 330.12-5.15 331.17-4.67 332.22-4.2 333.72-4.2L333.72-4.2 339.42-4.2 339.42-24 343.82-24ZM370.22-4.4L370.22 0 350.32 0 350.32-26.65Q350.32-30.35 352.67-32.6L352.67-32.6Q354.27-34.1 356.27-34.55 358.27-35 361.17-35L361.17-35 370.22-35 370.22-30.6 360.52-30.6Q355.02-30.6 355.02-26L355.02-26 355.02-20.3 366.57-20.3 366.57-15.9 355.02-15.9 355.02-4.4 370.22-4.4ZM383.27-24L392.12-24 392.12-19.8 383.27-19.8Q381.82-19.8 380.77-19.25 379.72-18.7 379.72-17.7L379.72-17.7Q379.72-17.1 379.97-16.63 380.22-16.15 380.54-15.85 380.87-15.55 381.54-15.23 382.22-14.9 382.59-14.78 382.97-14.65 385.77-13.75 388.57-12.85 389.92-12.25 391.27-11.65 391.99-10.63 392.72-9.6 392.92-8.63 393.12-7.65 393.12-6.7L393.12-6.7Q393.12 0 383.92 0L383.92 0 375.27 0 375.27-4.2 383.92-4.2Q388.62-4.2 388.62-6.7L388.62-6.7Q388.62-7.9 387.24-8.7 385.87-9.5 383.89-10.05 381.92-10.6 379.94-11.33 377.97-12.05 376.59-13.68 375.22-15.3 375.22-17.7L375.22-17.7Q375.22-20.75 377.57-22.38 379.92-24 383.27-24L383.27-24ZM405.91-24L414.76-24 414.76-19.8 405.91-19.8Q404.46-19.8 403.41-19.25 402.36-18.7 402.36-17.7L402.36-17.7Q402.36-17.1 402.61-16.63 402.86-16.15 403.19-15.85 403.51-15.55 404.19-15.23 404.86-14.9 405.24-14.78 405.61-14.65 408.41-13.75 411.21-12.85 412.56-12.25 413.91-11.65 414.64-10.63 415.36-9.6 415.56-8.63 415.76-7.65 415.76-6.7L415.76-6.7Q415.76 0 406.56 0L406.56 0 397.91 0 397.91-4.2 406.56-4.2Q411.26-4.2 411.26-6.7L411.26-6.7Q411.26-7.9 409.89-8.7 408.51-9.5 406.54-10.05 404.56-10.6 402.59-11.33 400.61-12.05 399.24-13.68 397.86-15.3 397.86-17.7L397.86-17.7Q397.86-20.75 400.21-22.38 402.56-24 405.91-24L405.91-24ZM434.11-14.1L434.11-14.1 434.11-9.6Q432.21-11.05 429.46-11.05L429.46-11.05Q427.11-11.05 425.81-10.13 424.51-9.2 424.51-7.5L424.51-7.5Q424.51-4.2 429.41-4.2L429.41-4.2 436.01-4.2 436.01-13.75Q436.01-19.8 430.11-19.8L430.11-19.8 422.11-19.8 422.11-24 430.36-24Q435.21-24 437.81-21.6 440.41-19.2 440.41-14.7L440.41-14.7 440.41 0 429.26 0Q425.01 0 422.51-1.9 420.01-3.8 420.01-7.45 420.01-11.1 422.66-13 425.31-14.9 429.31-14.9L429.31-14.9Q431.56-14.9 434.11-14.1Z" opacity="1" transform="matrix(1,0,0,1,0,0)" fill="black" class="wordmark-text-0" id="SvgjsPath1008" stroke-width="7" stroke="black" stroke-linejoin="round"></path></svg></g></svg></g><g transform="matrix(1,0,0,1,3.5,36.26414447205316)"><svg viewBox="0 0 309.416 15.63655957652889" height="15.63655957652889" width="309.416"><g transform="matrix(1,0,0,1,0,0)"><svg width="309.416" viewBox="0.019999999999999574 -35.379999999999995 930.65 47.769999999999996" height="15.63655957652889" data-palette-color="#0d2438"><path d="M4.02-1.9L4.02-29.48Q4.02-30.34 4.6-30.86 5.17-31.38 5.98-31.38L5.98-31.38 21.38-31.38Q22.24-31.38 22.61-30.86 22.99-30.34 22.99-29.74 22.99-29.14 22.61-28.62 22.24-28.1 21.38-28.1L21.38-28.1 8.05-28.1 8.05-17.93 20.86-17.93Q21.72-17.93 22.13-17.41 22.53-16.9 22.53-16.29 22.53-15.69 22.07-15.2 21.61-14.71 20.86-14.71L20.86-14.71 8.05-14.71 8.05-1.9Q8.05-1.03 7.59-0.57L7.59-0.57Q6.09 0.52 4.71-0.46L4.71-0.46Q4.14-0.86 4.02-1.9L4.02-1.9ZM76.95-20.11L76.95-1.61Q76.95-0.8 76.34-0.4 75.74 0 75.31 0 74.88 0 74.53-0.09 74.19-0.17 73.96-0.46L73.96-0.46Q73.38-0.86 73.38-1.61L73.38-1.61 73.38-3.62Q72.01-0.57 68.33 0.17L68.33 0.17Q67.18 0.46 65.86 0.46 64.53 0.46 63.1 0 61.66-0.46 60.63-1.49L60.63-1.49Q58.33-3.68 58.33-8.05L58.33-8.05 58.33-20.11Q58.33-20.92 58.84-21.38 59.36-21.84 60.05-21.84L60.05-21.84Q60.74-21.84 61.26-21.38 61.78-20.92 61.78-20.11L61.78-20.11 61.78-7.76Q61.78-4.66 63.04-3.45L63.04-3.45Q64.3-2.24 66.83-2.24L66.83-2.24Q71.09-2.24 72.69-5.69L72.69-5.69Q73.33-6.9 73.38-8.45L73.38-8.45 73.38-20.11Q73.38-20.92 73.96-21.38 74.53-21.84 75.22-21.84L75.22-21.84Q75.91-21.84 76.43-21.38 76.95-20.92 76.95-20.11L76.95-20.11ZM113.38-1.72L113.38-29.54Q113.38-30.46 113.95-30.86 114.53-31.26 114.99-31.26 115.45-31.26 115.73-31.21 116.02-31.15 116.31-30.86L116.31-30.86Q116.94-30.46 116.94-29.54L116.94-29.54 116.94-1.72Q116.94-0.86 116.37-0.43 115.79 0 115.1 0L115.1 0Q114.41 0 113.9-0.43 113.38-0.86 113.38-1.72L113.38-1.72ZM153.43-1.72L153.43-29.54Q153.43-30.46 154-30.86 154.58-31.26 155.04-31.26 155.5-31.26 155.79-31.21 156.07-31.15 156.36-30.86L156.36-30.86Q156.99-30.46 156.99-29.54L156.99-29.54 156.99-1.72Q156.99-0.86 156.42-0.43 155.84 0 155.15 0L155.15 0Q154.46 0 153.95-0.43 153.43-0.86 153.43-1.72L153.43-1.72ZM201.24-19.54L201.24-19.54Q196.24-19.54 196.35-16.38L196.35-16.38Q196.35-14.37 199.23-13.62L199.23-13.62Q200.2-13.33 201.33-13.1 202.45-12.87 203.77-12.56 205.09-12.24 206.47-11.72L206.47-11.72Q208.42-11.15 209.49-9.8 210.55-8.45 210.55-6.55L210.55-6.55Q210.55-3.1 207.62-1.21L207.62-1.21Q204.97 0.52 200.95 0.46L200.95 0.46Q197.96 0.46 195.09-0.57L195.09-0.57Q193.94-1.03 193.25-1.67 192.56-2.3 192.56-2.87 192.56-3.45 192.93-3.79 193.31-4.14 193.83-4.14 194.34-4.14 195-3.85 195.66-3.56 196.7-3.22L196.7-3.22Q199.34-2.24 200.95-2.24 202.56-2.24 203.54-2.44 204.52-2.64 205.32-3.1L205.32-3.1Q207.04-4.25 207.04-6.09L207.04-6.09Q207.04-7.41 206.21-8.13 205.38-8.85 204.08-9.25 202.79-9.66 201.53-9.94 200.26-10.23 199-10.52 197.73-10.8 196.58-11.21 195.43-11.61 194.63-12.3L194.63-12.3Q192.68-13.68 192.68-16.21L192.68-16.21Q192.68-19.43 195.38-20.86L195.38-20.86Q197.62-22.24 201.3-22.24L201.3-22.24Q205.03-22.24 207.27-21.15L207.27-21.15Q209.17-20.17 209.17-18.97L209.17-18.97Q209.17-18.51 208.8-18.22 208.42-17.93 207.96-17.93L207.96-17.93Q207.1-17.93 206.67-18.22 206.24-18.51 205.72-18.79 205.2-19.08 204.52-19.2L204.52-19.2Q203.25-19.54 201.24-19.54ZM257.15-1.26L257.15-1.26Q257.15 0.46 253.07 0.46L253.07 0.46Q250.03 0.46 248.76-1.21L248.76-1.21Q247.38-2.99 247.27-7.07L247.27-7.07 247.27-19.14 244.74-19.14Q244.05-19.14 243.65-19.57 243.24-20 243.24-20.46L243.24-20.46Q243.24-20.92 243.59-21.38 243.93-21.84 244.74-21.84L244.74-21.84 247.5-21.84 247.73-28.05Q247.84-28.74 248.36-29.11 248.88-29.48 249.45-29.48 250.03-29.48 250.43-29.14 250.83-28.79 250.83-28.05L250.83-28.05 250.83-21.84 254.8-21.84Q255.49-21.84 255.86-21.38 256.23-20.92 256.23-20.46L256.23-20.46Q256.23-19.89 255.86-19.51 255.49-19.14 254.8-19.14L254.8-19.14 250.83-19.14 250.83-8.97Q250.83-4.71 251.12-3.82 251.41-2.93 252.04-2.59 252.67-2.24 253.59-2.24L253.59-2.24 255.83-2.41Q256.46-2.41 256.81-2.01 257.15-1.61 257.15-1.26ZM301.11-13.28L301.11-13.28Q302.32-13.28 303.53-13.22L303.53-13.22 303.53-15.06Q303.53-19.54 298.53-19.54L298.53-19.54Q296.28-19.54 295.25-19.14L295.25-19.14Q293.41-18.45 292.61-17.96 291.8-17.47 291.34-17.47 290.88-17.47 290.48-17.82 290.08-18.16 290.08-18.74L290.08-18.74Q290.08-19.2 290.59-19.66L290.59-19.66Q293.3-22.24 298.58-22.24L298.58-22.24Q304.67-22.24 306.4-18.16L306.4-18.16Q306.97-16.72 306.97-14.83L306.97-14.83 306.86-1.55Q306.86-0.8 306.34-0.4 305.82 0 305.19 0 304.56 0 304.04-0.34 303.53-0.69 303.53-1.49L303.53-1.49 303.53-3.56Q302.15-0.57 298.58 0.17L298.58 0.17Q297.49 0.46 296.11 0.46 294.73 0.46 293.38 0.06 292.03-0.34 291-1.21L291-1.21Q288.87-2.99 288.87-6.03L288.87-6.03Q288.87-13.28 301.11-13.28ZM303.53-8.74L303.53-10.69Q302.61-10.57 301.4-10.57 300.19-10.57 298.93-10.55 297.66-10.52 296.51-10.26 295.36-10 294.44-9.48L294.44-9.48Q292.49-8.45 292.38-6.09L292.38-6.09Q292.38-4.25 293.87-3.22L293.87-3.22Q295.02-2.3 297.15-2.24L297.15-2.24Q299.73-2.24 301.63-3.91L301.63-3.91Q303.35-5.52 303.53-8.74L303.53-8.74ZM341.79-10.92L341.79-10.92Q341.79-15.69 344.5-18.85L344.5-18.85Q347.43-22.24 352.14-22.24L352.14-22.24Q356.16-22.24 358.29-20.57L358.29-20.57Q358.92-20.11 358.92-19.48 358.92-18.85 358.58-18.48 358.23-18.1 357.77-18.1 357.31-18.1 357.08-18.28L357.08-18.28Q354.9-19.54 352.48-19.48L352.48-19.48Q349.32-19.48 347.54-17.13L347.54-17.13Q345.53-14.71 345.53-10.92L345.53-10.92Q345.53-7.41 346.97-5L346.97-5Q348.69-2.24 352.48-2.24L352.48-2.24Q354.55-2.24 357.54-3.68L357.54-3.68Q358.35-4.14 358.92-3.45L358.92-3.45Q359.27-3.1 359.27-2.5 359.27-1.9 358.52-1.29 357.77-0.69 356.74-0.34L356.74-0.34Q354.21 0.52 351.85 0.49 349.5 0.46 347.6-0.4 345.7-1.26 344.44-2.93L344.44-2.93Q341.79-6.09 341.79-10.92ZM408.74-0.57L397.94-11.72 397.94-1.72Q397.94-0.86 397.39-0.43 396.85 0 396.19 0 395.52 0 395.01-0.43 394.49-0.86 394.49-1.72L394.49-1.72 394.49-29.54Q394.49-30.46 395.01-30.86 395.52-31.26 396.04-31.26 396.56-31.26 396.87-31.21 397.19-31.15 397.48-30.86L397.48-30.86Q397.94-30.46 397.94-29.54L397.94-29.54 397.94-12.93 407.88-21.26Q408.4-21.84 408.97-21.84L408.97-21.84Q409.6-21.84 410.09-21.38 410.58-20.92 410.58-20.52L410.58-20.52Q410.58-19.77 410.12-19.43L410.12-19.43 401.62-12.3 411.27-2.53Q411.62-2.18 411.62-1.7 411.62-1.21 411.47-0.95 411.33-0.69 411.04-0.46L411.04-0.46Q410.47 0 409.89 0 409.32 0 408.74-0.57L408.74-0.57ZM496.95 0L489.36 0Q488.16 0 487.52-1.15L487.52-1.15Q487.41-1.49 487.47-1.9L487.47-1.9 487.47-29.43Q487.47-30.57 488.56-31.21L488.56-31.21Q488.9-31.38 489.36-31.38L489.36-31.38 496.83-31.38Q509.19-31.38 512.58-22.41L512.58-22.41Q513.67-19.48 513.62-15.63L513.62-15.63Q513.62-7.93 509.25-3.97L509.25-3.97Q504.88 0 496.95 0L496.95 0ZM491.32-28.28L491.32-2.99 497.41-2.99Q506.6-2.99 508.79-10.46L508.79-10.46Q509.48-12.76 509.48-15.8 509.48-18.85 508.56-21.26 507.64-23.68 505.91-25.29L505.91-25.29Q502.64-28.28 496.26-28.28L496.26-28.28 491.32-28.28ZM568.84-11.55L568.84-11.55Q568.84-10.34 567.46-10.23L567.46-10.23 551.71-10.23Q551.94-4.37 556.31-2.64L556.31-2.64Q557.52-2.24 559.07-2.24L559.07-2.24Q562.29-2.24 565.62-4.6L565.62-4.6Q566.65-5.17 567.34-4.48L567.34-4.48Q567.69-4.14 567.57-3.79L567.57-3.79Q567.57-2.99 567.17-2.64L567.17-2.64Q564.01 0.52 558.84 0.46L558.84 0.46Q554.13 0.46 551.25-2.59L551.25-2.59Q548.03-5.75 548.03-10.92L548.03-10.92Q548.03-15.69 550.68-18.79L550.68-18.79Q553.44-22.24 558.49-22.24L558.49-22.24Q563.55-22.24 566.2-19.2L566.2-19.2Q568.72-16.44 568.84-11.55ZM551.83-12.59L565.45-12.59Q565.28-15.69 563.44-17.7L563.44-17.7Q561.71-19.54 558.49-19.54L558.49-19.54Q555.74-19.54 553.78-17.47L553.78-17.47Q552-15.4 551.83-12.59L551.83-12.59ZM621.76-19.54L614.98-2.64Q614.41-1.26 613.75-0.63 613.09 0 611.88 0L611.88 0Q610.67 0 610.01-0.6 609.35-1.21 608.89-2.64L608.89-2.64 601.71-19.54Q601.19-20.52 602.22-21.26L602.22-21.26Q602.8-21.72 603.37-21.84L603.37-21.84Q604.64-21.84 604.98-20.57L604.98-20.57 611.88-4.02 618.55-20.57Q618.95-21.72 620.04-21.84L620.04-21.84Q621.19-21.84 621.76-20.86L621.76-20.86Q621.99-20.52 621.94-20.2 621.88-19.89 621.76-19.54L621.76-19.54ZM675.55-11.55L675.55-11.55Q675.55-10.34 674.17-10.23L674.17-10.23 658.42-10.23Q658.65-4.37 663.02-2.64L663.02-2.64Q664.23-2.24 665.78-2.24L665.78-2.24Q669-2.24 672.33-4.6L672.33-4.6Q673.37-5.17 674.06-4.48L674.06-4.48Q674.4-4.14 674.29-3.79L674.29-3.79Q674.29-2.99 673.88-2.64L673.88-2.64Q670.72 0.52 665.55 0.46L665.55 0.46Q660.84 0.46 657.96-2.59L657.96-2.59Q654.75-5.75 654.75-10.92L654.75-10.92Q654.75-15.69 657.39-18.79L657.39-18.79Q660.15-22.24 665.21-22.24L665.21-22.24Q670.26-22.24 672.91-19.2L672.91-19.2Q675.44-16.44 675.55-11.55ZM658.54-12.59L672.16-12.59Q671.99-15.69 670.15-17.7L670.15-17.7Q668.42-19.54 665.21-19.54L665.21-19.54Q662.45-19.54 660.49-17.47L660.49-17.47Q658.71-15.4 658.54-12.59L658.54-12.59ZM710.66-1.72L710.66-29.54Q710.66-30.46 711.23-30.86 711.81-31.26 712.27-31.26 712.73-31.26 713.02-31.21 713.3-31.15 713.59-30.86L713.59-30.86Q714.22-30.46 714.22-29.54L714.22-29.54 714.22-1.72Q714.22-0.86 713.65-0.43 713.07 0 712.38 0L712.38 0Q711.69 0 711.18-0.43 710.66-0.86 710.66-1.72L710.66-1.72ZM749.16-10.86L749.16-10.86Q749.16-12.93 749.82-15 750.48-17.07 751.86-18.74L751.86-18.74Q754.73-22.24 760.02-22.24 765.31-22.24 768.18-18.74L768.18-18.74Q770.88-15.4 770.88-10.92L770.88-10.92Q770.88-6.38 768.18-3.1L768.18-3.1Q765.31 0.46 760.02 0.46 754.73 0.46 751.86-3.1L751.86-3.1Q749.16-6.32 749.16-10.86ZM752.89-10.86L752.89-10.86Q752.89-9.48 753.27-7.93 753.64-6.38 754.62-5.06L754.62-5.06Q756.57-2.24 760.02-2.24L760.02-2.24Q763.64-2.24 765.42-5.06L765.42-5.06Q767.09-7.7 767.09-10.92L767.09-10.92Q767.09-14.25 765.42-16.67L765.42-16.67Q763.58-19.54 760.02-19.54L760.02-19.54Q756.57-19.54 754.62-16.67L754.62-16.67Q752.89-14.31 752.89-10.86ZM808.92-18.1L808.92-18.1Q811.16-22.24 816.74-22.24L816.74-22.24Q821.34-22.24 823.75-18.74L823.75-18.74Q825.93-15.52 825.93-10.8L825.93-10.8Q825.93-5.98 823.63-2.93L823.63-2.93Q821.16 0.52 816.68 0.46L816.68 0.46Q812.89 0.46 810.47-1.84L810.47-1.84Q809.61-2.59 808.92-3.62L808.92-3.62 808.92 6.72Q808.92 7.59 808.35 7.99 807.77 8.39 807.2 8.39L807.2 8.39Q806.51 8.39 805.93 7.93 805.36 7.47 805.36 6.72L805.36 6.72 805.36-20.17Q805.36-21.03 805.88-21.44 806.39-21.84 807.37-21.84L807.37-21.84Q809.27-21.84 808.92-18.1ZM810.33-17.01Q809.5-15.86 809.21-14.25 808.92-12.64 808.92-10.89 808.92-9.14 809.32-7.61 809.73-6.09 810.53-4.83L810.53-4.83Q812.37-2.18 815.82-2.24L815.82-2.24Q819.15-2.24 820.88-5L820.88-5Q822.2-7.24 822.2-10.92L822.2-10.92Q822.2-16.72 818.92-18.74L818.92-18.74Q817.72-19.48 815.79-19.51 813.86-19.54 812.51-18.85 811.16-18.16 810.33-17.01ZM880.35-11.55L880.35-11.55Q880.35-10.34 878.97-10.23L878.97-10.23 863.23-10.23Q863.46-4.37 867.82-2.64L867.82-2.64Q869.03-2.24 870.58-2.24L870.58-2.24Q873.8-2.24 877.13-4.6L877.13-4.6Q878.17-5.17 878.86-4.48L878.86-4.48Q879.2-4.14 879.09-3.79L879.09-3.79Q879.09-2.99 878.69-2.64L878.69-2.64Q875.53 0.52 870.35 0.46L870.35 0.46Q865.64 0.46 862.77-2.59L862.77-2.59Q859.55-5.75 859.55-10.92L859.55-10.92Q859.55-15.69 862.19-18.79L862.19-18.79Q864.95-22.24 870.01-22.24L870.01-22.24Q875.07-22.24 877.71-19.2L877.71-19.2Q880.24-16.44 880.35-11.55ZM863.34-12.59L876.96-12.59Q876.79-15.69 874.95-17.7L874.95-17.7Q873.23-19.54 870.01-19.54L870.01-19.54Q867.25-19.54 865.3-17.47L865.3-17.47Q863.51-15.4 863.34-12.59L863.34-12.59ZM918.91-20.11L918.91-18.16Q920.29-22.24 924.94-22.24L924.94-22.24Q925.81-22.24 926.24-21.75 926.67-21.26 926.67-20.72 926.67-20.17 926.24-19.68 925.81-19.2 924.66-19.2 923.51-19.2 922.36-18.74 921.21-18.28 920.46-17.41L920.46-17.41Q918.91-15.52 918.91-12.41L918.91-12.41 918.91-1.61Q918.91-0.8 918.33-0.4 917.76 0 917.3 0 916.84 0 916.55-0.09 916.27-0.17 915.98-0.46L915.98-0.46Q915.46-0.8 915.46-1.61L915.46-1.61 915.46-20.11Q915.46-20.86 915.98-21.35 916.5-21.84 917.27-21.84 918.05-21.84 918.48-21.35 918.91-20.86 918.91-20.11L918.91-20.11Z" opacity="1" transform="matrix(1,0,0,1,0,0)" fill="black" class="slogan-text-1" id="SvgjsPath1007" stroke-width="7" stroke="black" stroke-linejoin="round"></path></svg></g></svg></g></svg></g></svg></g></svg></g></svg></g></svg></g></mask><g transform="matrix(1,0,0,1,39.55199999999999,97.64964797570897)"><svg viewBox="0 0 316.416 51.90070404858206" height="51.90070404858206" width="316.416"><g><svg viewBox="0 0 316.416 51.90070404858206" height="51.90070404858206" width="316.416"><g><svg viewBox="0 0 316.416 51.90070404858206" height="51.90070404858206" width="316.416"><g><svg viewBox="0 0 316.416 51.90070404858206" height="51.90070404858206" width="316.416"><g id="textblocktransform"><svg viewBox="0 0 316.416 51.90070404858206" height="51.90070404858206" width="316.416" id="textblock"><g><svg viewBox="0 0 316.416 30.290978713819126" height="30.290978713819126" width="316.416"><g transform="matrix(1,0,0,1,0,0)"><svg width="316.416" viewBox="-0.5 -39 444.91 43.5" height="30.290978713819126" data-palette-color="#0d2438"><path d="M15.65-26.3L19.75-10.85 20.05-10.85 24.15-26.3Q25.45-31.3 28.15-33.15 30.85-35 36.3-35L36.3-35 36.3 0 31.6 0 31.6-29.7Q30.3-29.15 29.63-28.15 28.95-27.15 28.35-25.15L28.35-25.15 22.1-3.7 17.7-3.7 11.4-25.15Q10.8-27.2 10.15-28.18 9.5-29.15 8.2-29.7L8.2-29.7 8.2 0 3.5 0 3.5-35Q8.95-35 11.63-33.13 14.3-31.25 15.65-26.3L15.65-26.3ZM45.55-20.85L45.55-20.85Q49.05-24.5 54.3-24.5L54.3-24.5Q56.85-24.5 59.07-23.53 61.3-22.55 62.97-20.85 64.65-19.15 65.6-16.88 66.55-14.6 66.55-12L66.55-12Q66.55-9.4 65.62-7.13 64.7-4.85 63.05-3.15 61.4-1.45 59.15-0.48 56.9 0.5 54.3 0.5L54.3 0.5Q51.65 0.5 49.42-0.48 47.2-1.45 45.55-3.15 43.9-4.85 42.97-7.13 42.05-9.4 42.05-12L42.05-12Q42.05-17.3 45.55-20.85ZM54.3-20.3L54.3-20.3Q50.8-20.3 48.67-18 46.55-15.7 46.55-12 46.55-8.3 48.67-6 50.8-3.7 54.3-3.7L54.3-3.7Q57.85-3.7 59.95-6.03 62.05-8.35 62.05-12 62.05-15.65 59.95-17.98 57.85-20.3 54.3-20.3ZM71.8-35L76.2-35 76.2-24 80.45-24Q86-24 88.4-22.35L88.4-22.35Q90.55-20.9 91.12-18.88 91.7-16.85 91.7-13.55L91.7-13.55 91.7 0 87.3 0 87.3-13.5Q87.3-14.4 87.25-15.03 87.2-15.65 86.9-16.63 86.6-17.6 86.05-18.23 85.5-18.85 84.45-19.33 83.4-19.8 81.9-19.8L81.9-19.8 76.2-19.8 76.2 0 71.8 0 71.8-35ZM111.04-14.1L111.04-14.1 111.04-9.6Q109.14-11.05 106.39-11.05L106.39-11.05Q104.04-11.05 102.74-10.13 101.44-9.2 101.44-7.5L101.44-7.5Q101.44-4.2 106.34-4.2L106.34-4.2 112.94-4.2 112.94-13.75Q112.94-19.8 107.04-19.8L107.04-19.8 99.04-19.8 99.04-24 107.29-24Q112.14-24 114.74-21.6 117.34-19.2 117.34-14.7L117.34-14.7 117.34 0 106.19 0Q101.94 0 99.44-1.9 96.94-3.8 96.94-7.45 96.94-11.1 99.59-13 102.24-14.9 106.24-14.9L106.24-14.9Q108.49-14.9 111.04-14.1ZM123.09 0L123.09-24 145.14-24Q148.69-24 150.79-22.65L150.79-22.65Q152.94-21.3 153.62-19.15 154.29-17 154.29-14L154.29-14 154.29 0 149.89 0 149.89-14Q149.89-17.9 147.54-19.15L147.54-19.15Q146.34-19.8 142.69-19.8L142.69-19.8 140.64-19.8 140.64 0 136.24 0 136.24-19.8 127.49-19.8 127.49 0 123.09 0ZM160.54 0L160.54-24 182.59-24Q186.14-24 188.24-22.65L188.24-22.65Q190.39-21.3 191.06-19.15 191.74-17 191.74-14L191.74-14 191.74 0 187.34 0 187.34-14Q187.34-17.9 184.99-19.15L184.99-19.15Q183.79-19.8 180.14-19.8L180.14-19.8 178.09-19.8 178.09 0 173.69 0 173.69-19.8 164.94-19.8 164.94 0 160.54 0ZM211.09-14.1L211.09-14.1 211.09-9.6Q209.19-11.05 206.44-11.05L206.44-11.05Q204.09-11.05 202.79-10.13 201.49-9.2 201.49-7.5L201.49-7.5Q201.49-4.2 206.39-4.2L206.39-4.2 212.99-4.2 212.99-13.75Q212.99-19.8 207.09-19.8L207.09-19.8 199.09-19.8 199.09-24 207.34-24Q212.19-24 214.79-21.6 217.39-19.2 217.39-14.7L217.39-14.7 217.39 0 206.24 0Q201.99 0 199.49-1.9 196.99-3.8 196.99-7.45 196.99-11.1 199.64-13 202.29-14.9 206.29-14.9L206.29-14.9Q208.54-14.9 211.09-14.1ZM241.63-4.2L241.63-35 246.13-35 246.13 0 234.38 0Q228.93 0 225.53-3.48 222.13-6.95 222.13-12.25L222.13-12.25Q222.13-17.45 225.66-20.98 229.18-24.5 234.03-24.5L234.03-24.5Q237.13-24.5 239.83-23L239.83-23 239.83-18.5Q237.33-20.3 234.03-20.3L234.03-20.3Q231.03-20.3 228.96-18.07 226.88-15.85 226.88-12.25L226.88-12.25Q226.88-8.6 228.86-6.4 230.83-4.2 234.38-4.2L234.38-4.2 241.63-4.2ZM268.23-12.8L268.23 0 263.78 0 263.78-22Q263.78-27.4 267.25-31.2 270.73-35 276.23-35L276.23-35 287.68-35 287.68 0 282.98 0 282.98-30.6 276.23-30.6Q272.58-30.6 270.4-28.45 268.23-26.3 268.23-21.6L268.23-21.6 268.23-17.35Q271.03-20.3 276.23-20.3L276.23-20.3 280.78-20.3 280.78-15.9 276.23-15.9Q273.33-15.9 271.5-15.2 269.68-14.5 268.23-12.8L268.23-12.8ZM294.18-12L294.18-35 298.68-35 298.68-12Q298.68-8.05 300.7-5.88 302.73-3.7 306.28-3.7L306.28-3.7Q309.98-3.7 312.07-5.83 314.18-7.95 314.18-12L314.18-12Q314.18-15.85 311.9-18.07 309.63-20.3 305.93-20.3L305.93-20.3Q302.78-20.3 300.48-18.5L300.48-18.5 300.48-23Q303.23-24.5 306.43-24.5L306.43-24.5Q311.73-24.5 315.2-21.08 318.68-17.65 318.68-12L318.68-12Q318.68-6.05 315.05-2.78 311.43 0.5 305.93 0.5L305.93 0.5Q300.68 0.5 297.43-2.9 294.18-6.3 294.18-12L294.18-12ZM343.82-24L343.82 0 335.17 0Q329.62 0 327.22-1.65L327.22-1.65Q325.07-3.1 324.5-5.13 323.92-7.15 323.92-10.45L323.92-10.45 323.92-24 328.32-24 328.32-10.5Q328.32-9.6 328.37-8.97 328.42-8.35 328.72-7.38 329.02-6.4 329.57-5.78 330.12-5.15 331.17-4.67 332.22-4.2 333.72-4.2L333.72-4.2 339.42-4.2 339.42-24 343.82-24ZM370.22-4.4L370.22 0 350.32 0 350.32-26.65Q350.32-30.35 352.67-32.6L352.67-32.6Q354.27-34.1 356.27-34.55 358.27-35 361.17-35L361.17-35 370.22-35 370.22-30.6 360.52-30.6Q355.02-30.6 355.02-26L355.02-26 355.02-20.3 366.57-20.3 366.57-15.9 355.02-15.9 355.02-4.4 370.22-4.4ZM383.27-24L392.12-24 392.12-19.8 383.27-19.8Q381.82-19.8 380.77-19.25 379.72-18.7 379.72-17.7L379.72-17.7Q379.72-17.1 379.97-16.63 380.22-16.15 380.54-15.85 380.87-15.55 381.54-15.23 382.22-14.9 382.59-14.78 382.97-14.65 385.77-13.75 388.57-12.85 389.92-12.25 391.27-11.65 391.99-10.63 392.72-9.6 392.92-8.63 393.12-7.65 393.12-6.7L393.12-6.7Q393.12 0 383.92 0L383.92 0 375.27 0 375.27-4.2 383.92-4.2Q388.62-4.2 388.62-6.7L388.62-6.7Q388.62-7.9 387.24-8.7 385.87-9.5 383.89-10.05 381.92-10.6 379.94-11.33 377.97-12.05 376.59-13.68 375.22-15.3 375.22-17.7L375.22-17.7Q375.22-20.75 377.57-22.38 379.92-24 383.27-24L383.27-24ZM405.91-24L414.76-24 414.76-19.8 405.91-19.8Q404.46-19.8 403.41-19.25 402.36-18.7 402.36-17.7L402.36-17.7Q402.36-17.1 402.61-16.63 402.86-16.15 403.19-15.85 403.51-15.55 404.19-15.23 404.86-14.9 405.24-14.78 405.61-14.65 408.41-13.75 411.21-12.85 412.56-12.25 413.91-11.65 414.64-10.63 415.36-9.6 415.56-8.63 415.76-7.65 415.76-6.7L415.76-6.7Q415.76 0 406.56 0L406.56 0 397.91 0 397.91-4.2 406.56-4.2Q411.26-4.2 411.26-6.7L411.26-6.7Q411.26-7.9 409.89-8.7 408.51-9.5 406.54-10.05 404.56-10.6 402.59-11.33 400.61-12.05 399.24-13.68 397.86-15.3 397.86-17.7L397.86-17.7Q397.86-20.75 400.21-22.38 402.56-24 405.91-24L405.91-24ZM434.11-14.1L434.11-14.1 434.11-9.6Q432.21-11.05 429.46-11.05L429.46-11.05Q427.11-11.05 425.81-10.13 424.51-9.2 424.51-7.5L424.51-7.5Q424.51-4.2 429.41-4.2L429.41-4.2 436.01-4.2 436.01-13.75Q436.01-19.8 430.11-19.8L430.11-19.8 422.11-19.8 422.11-24 430.36-24Q435.21-24 437.81-21.6 440.41-19.2 440.41-14.7L440.41-14.7 440.41 0 429.26 0Q425.01 0 422.51-1.9 420.01-3.8 420.01-7.45 420.01-11.1 422.66-13 425.31-14.9 429.31-14.9L429.31-14.9Q431.56-14.9 434.11-14.1Z" opacity="1" transform="matrix(1,0,0,1,0,0)" fill="#ffffff" class="wordmark-text-0" data-fill-palette-color="primary" id="text-0"></path></svg></g></svg></g><g transform="matrix(1,0,0,1,3.5,36.26414447205316)"><svg viewBox="0 0 309.416 15.63655957652889" height="15.63655957652889" width="309.416"><g transform="matrix(1,0,0,1,0,0)"><svg width="309.416" viewBox="0.019999999999999574 -35.379999999999995 930.65 47.769999999999996" height="15.63655957652889" data-palette-color="#0d2438"><path d="M4.02-1.9L4.02-29.48Q4.02-30.34 4.6-30.86 5.17-31.38 5.98-31.38L5.98-31.38 21.38-31.38Q22.24-31.38 22.61-30.86 22.99-30.34 22.99-29.74 22.99-29.14 22.61-28.62 22.24-28.1 21.38-28.1L21.38-28.1 8.05-28.1 8.05-17.93 20.86-17.93Q21.72-17.93 22.13-17.41 22.53-16.9 22.53-16.29 22.53-15.69 22.07-15.2 21.61-14.71 20.86-14.71L20.86-14.71 8.05-14.71 8.05-1.9Q8.05-1.03 7.59-0.57L7.59-0.57Q6.09 0.52 4.71-0.46L4.71-0.46Q4.14-0.86 4.02-1.9L4.02-1.9ZM76.95-20.11L76.95-1.61Q76.95-0.8 76.34-0.4 75.74 0 75.31 0 74.88 0 74.53-0.09 74.19-0.17 73.96-0.46L73.96-0.46Q73.38-0.86 73.38-1.61L73.38-1.61 73.38-3.62Q72.01-0.57 68.33 0.17L68.33 0.17Q67.18 0.46 65.86 0.46 64.53 0.46 63.1 0 61.66-0.46 60.63-1.49L60.63-1.49Q58.33-3.68 58.33-8.05L58.33-8.05 58.33-20.11Q58.33-20.92 58.84-21.38 59.36-21.84 60.05-21.84L60.05-21.84Q60.74-21.84 61.26-21.38 61.78-20.92 61.78-20.11L61.78-20.11 61.78-7.76Q61.78-4.66 63.04-3.45L63.04-3.45Q64.3-2.24 66.83-2.24L66.83-2.24Q71.09-2.24 72.69-5.69L72.69-5.69Q73.33-6.9 73.38-8.45L73.38-8.45 73.38-20.11Q73.38-20.92 73.96-21.38 74.53-21.84 75.22-21.84L75.22-21.84Q75.91-21.84 76.43-21.38 76.95-20.92 76.95-20.11L76.95-20.11ZM113.38-1.72L113.38-29.54Q113.38-30.46 113.95-30.86 114.53-31.26 114.99-31.26 115.45-31.26 115.73-31.21 116.02-31.15 116.31-30.86L116.31-30.86Q116.94-30.46 116.94-29.54L116.94-29.54 116.94-1.72Q116.94-0.86 116.37-0.43 115.79 0 115.1 0L115.1 0Q114.41 0 113.9-0.43 113.38-0.86 113.38-1.72L113.38-1.72ZM153.43-1.72L153.43-29.54Q153.43-30.46 154-30.86 154.58-31.26 155.04-31.26 155.5-31.26 155.79-31.21 156.07-31.15 156.36-30.86L156.36-30.86Q156.99-30.46 156.99-29.54L156.99-29.54 156.99-1.72Q156.99-0.86 156.42-0.43 155.84 0 155.15 0L155.15 0Q154.46 0 153.95-0.43 153.43-0.86 153.43-1.72L153.43-1.72ZM201.24-19.54L201.24-19.54Q196.24-19.54 196.35-16.38L196.35-16.38Q196.35-14.37 199.23-13.62L199.23-13.62Q200.2-13.33 201.33-13.1 202.45-12.87 203.77-12.56 205.09-12.24 206.47-11.72L206.47-11.72Q208.42-11.15 209.49-9.8 210.55-8.45 210.55-6.55L210.55-6.55Q210.55-3.1 207.62-1.21L207.62-1.21Q204.97 0.52 200.95 0.46L200.95 0.46Q197.96 0.46 195.09-0.57L195.09-0.57Q193.94-1.03 193.25-1.67 192.56-2.3 192.56-2.87 192.56-3.45 192.93-3.79 193.31-4.14 193.83-4.14 194.34-4.14 195-3.85 195.66-3.56 196.7-3.22L196.7-3.22Q199.34-2.24 200.95-2.24 202.56-2.24 203.54-2.44 204.52-2.64 205.32-3.1L205.32-3.1Q207.04-4.25 207.04-6.09L207.04-6.09Q207.04-7.41 206.21-8.13 205.38-8.85 204.08-9.25 202.79-9.66 201.53-9.94 200.26-10.23 199-10.52 197.73-10.8 196.58-11.21 195.43-11.61 194.63-12.3L194.63-12.3Q192.68-13.68 192.68-16.21L192.68-16.21Q192.68-19.43 195.38-20.86L195.38-20.86Q197.62-22.24 201.3-22.24L201.3-22.24Q205.03-22.24 207.27-21.15L207.27-21.15Q209.17-20.17 209.17-18.97L209.17-18.97Q209.17-18.51 208.8-18.22 208.42-17.93 207.96-17.93L207.96-17.93Q207.1-17.93 206.67-18.22 206.24-18.51 205.72-18.79 205.2-19.08 204.52-19.2L204.52-19.2Q203.25-19.54 201.24-19.54ZM257.15-1.26L257.15-1.26Q257.15 0.46 253.07 0.46L253.07 0.46Q250.03 0.46 248.76-1.21L248.76-1.21Q247.38-2.99 247.27-7.07L247.27-7.07 247.27-19.14 244.74-19.14Q244.05-19.14 243.65-19.57 243.24-20 243.24-20.46L243.24-20.46Q243.24-20.92 243.59-21.38 243.93-21.84 244.74-21.84L244.74-21.84 247.5-21.84 247.73-28.05Q247.84-28.74 248.36-29.11 248.88-29.48 249.45-29.48 250.03-29.48 250.43-29.14 250.83-28.79 250.83-28.05L250.83-28.05 250.83-21.84 254.8-21.84Q255.49-21.84 255.86-21.38 256.23-20.92 256.23-20.46L256.23-20.46Q256.23-19.89 255.86-19.51 255.49-19.14 254.8-19.14L254.8-19.14 250.83-19.14 250.83-8.97Q250.83-4.71 251.12-3.82 251.41-2.93 252.04-2.59 252.67-2.24 253.59-2.24L253.59-2.24 255.83-2.41Q256.46-2.41 256.81-2.01 257.15-1.61 257.15-1.26ZM301.11-13.28L301.11-13.28Q302.32-13.28 303.53-13.22L303.53-13.22 303.53-15.06Q303.53-19.54 298.53-19.54L298.53-19.54Q296.28-19.54 295.25-19.14L295.25-19.14Q293.41-18.45 292.61-17.96 291.8-17.47 291.34-17.47 290.88-17.47 290.48-17.82 290.08-18.16 290.08-18.74L290.08-18.74Q290.08-19.2 290.59-19.66L290.59-19.66Q293.3-22.24 298.58-22.24L298.58-22.24Q304.67-22.24 306.4-18.16L306.4-18.16Q306.97-16.72 306.97-14.83L306.97-14.83 306.86-1.55Q306.86-0.8 306.34-0.4 305.82 0 305.19 0 304.56 0 304.04-0.34 303.53-0.69 303.53-1.49L303.53-1.49 303.53-3.56Q302.15-0.57 298.58 0.17L298.58 0.17Q297.49 0.46 296.11 0.46 294.73 0.46 293.38 0.06 292.03-0.34 291-1.21L291-1.21Q288.87-2.99 288.87-6.03L288.87-6.03Q288.87-13.28 301.11-13.28ZM303.53-8.74L303.53-10.69Q302.61-10.57 301.4-10.57 300.19-10.57 298.93-10.55 297.66-10.52 296.51-10.26 295.36-10 294.44-9.48L294.44-9.48Q292.49-8.45 292.38-6.09L292.38-6.09Q292.38-4.25 293.87-3.22L293.87-3.22Q295.02-2.3 297.15-2.24L297.15-2.24Q299.73-2.24 301.63-3.91L301.63-3.91Q303.35-5.52 303.53-8.74L303.53-8.74ZM341.79-10.92L341.79-10.92Q341.79-15.69 344.5-18.85L344.5-18.85Q347.43-22.24 352.14-22.24L352.14-22.24Q356.16-22.24 358.29-20.57L358.29-20.57Q358.92-20.11 358.92-19.48 358.92-18.85 358.58-18.48 358.23-18.1 357.77-18.1 357.31-18.1 357.08-18.28L357.08-18.28Q354.9-19.54 352.48-19.48L352.48-19.48Q349.32-19.48 347.54-17.13L347.54-17.13Q345.53-14.71 345.53-10.92L345.53-10.92Q345.53-7.41 346.97-5L346.97-5Q348.69-2.24 352.48-2.24L352.48-2.24Q354.55-2.24 357.54-3.68L357.54-3.68Q358.35-4.14 358.92-3.45L358.92-3.45Q359.27-3.1 359.27-2.5 359.27-1.9 358.52-1.29 357.77-0.69 356.74-0.34L356.74-0.34Q354.21 0.52 351.85 0.49 349.5 0.46 347.6-0.4 345.7-1.26 344.44-2.93L344.44-2.93Q341.79-6.09 341.79-10.92ZM408.74-0.57L397.94-11.72 397.94-1.72Q397.94-0.86 397.39-0.43 396.85 0 396.19 0 395.52 0 395.01-0.43 394.49-0.86 394.49-1.72L394.49-1.72 394.49-29.54Q394.49-30.46 395.01-30.86 395.52-31.26 396.04-31.26 396.56-31.26 396.87-31.21 397.19-31.15 397.48-30.86L397.48-30.86Q397.94-30.46 397.94-29.54L397.94-29.54 397.94-12.93 407.88-21.26Q408.4-21.84 408.97-21.84L408.97-21.84Q409.6-21.84 410.09-21.38 410.58-20.92 410.58-20.52L410.58-20.52Q410.58-19.77 410.12-19.43L410.12-19.43 401.62-12.3 411.27-2.53Q411.62-2.18 411.62-1.7 411.62-1.21 411.47-0.95 411.33-0.69 411.04-0.46L411.04-0.46Q410.47 0 409.89 0 409.32 0 408.74-0.57L408.74-0.57ZM496.95 0L489.36 0Q488.16 0 487.52-1.15L487.52-1.15Q487.41-1.49 487.47-1.9L487.47-1.9 487.47-29.43Q487.47-30.57 488.56-31.21L488.56-31.21Q488.9-31.38 489.36-31.38L489.36-31.38 496.83-31.38Q509.19-31.38 512.58-22.41L512.58-22.41Q513.67-19.48 513.62-15.63L513.62-15.63Q513.62-7.93 509.25-3.97L509.25-3.97Q504.88 0 496.95 0L496.95 0ZM491.32-28.28L491.32-2.99 497.41-2.99Q506.6-2.99 508.79-10.46L508.79-10.46Q509.48-12.76 509.48-15.8 509.48-18.85 508.56-21.26 507.64-23.68 505.91-25.29L505.91-25.29Q502.64-28.28 496.26-28.28L496.26-28.28 491.32-28.28ZM568.84-11.55L568.84-11.55Q568.84-10.34 567.46-10.23L567.46-10.23 551.71-10.23Q551.94-4.37 556.31-2.64L556.31-2.64Q557.52-2.24 559.07-2.24L559.07-2.24Q562.29-2.24 565.62-4.6L565.62-4.6Q566.65-5.17 567.34-4.48L567.34-4.48Q567.69-4.14 567.57-3.79L567.57-3.79Q567.57-2.99 567.17-2.64L567.17-2.64Q564.01 0.52 558.84 0.46L558.84 0.46Q554.13 0.46 551.25-2.59L551.25-2.59Q548.03-5.75 548.03-10.92L548.03-10.92Q548.03-15.69 550.68-18.79L550.68-18.79Q553.44-22.24 558.49-22.24L558.49-22.24Q563.55-22.24 566.2-19.2L566.2-19.2Q568.72-16.44 568.84-11.55ZM551.83-12.59L565.45-12.59Q565.28-15.69 563.44-17.7L563.44-17.7Q561.71-19.54 558.49-19.54L558.49-19.54Q555.74-19.54 553.78-17.47L553.78-17.47Q552-15.4 551.83-12.59L551.83-12.59ZM621.76-19.54L614.98-2.64Q614.41-1.26 613.75-0.63 613.09 0 611.88 0L611.88 0Q610.67 0 610.01-0.6 609.35-1.21 608.89-2.64L608.89-2.64 601.71-19.54Q601.19-20.52 602.22-21.26L602.22-21.26Q602.8-21.72 603.37-21.84L603.37-21.84Q604.64-21.84 604.98-20.57L604.98-20.57 611.88-4.02 618.55-20.57Q618.95-21.72 620.04-21.84L620.04-21.84Q621.19-21.84 621.76-20.86L621.76-20.86Q621.99-20.52 621.94-20.2 621.88-19.89 621.76-19.54L621.76-19.54ZM675.55-11.55L675.55-11.55Q675.55-10.34 674.17-10.23L674.17-10.23 658.42-10.23Q658.65-4.37 663.02-2.64L663.02-2.64Q664.23-2.24 665.78-2.24L665.78-2.24Q669-2.24 672.33-4.6L672.33-4.6Q673.37-5.17 674.06-4.48L674.06-4.48Q674.4-4.14 674.29-3.79L674.29-3.79Q674.29-2.99 673.88-2.64L673.88-2.64Q670.72 0.52 665.55 0.46L665.55 0.46Q660.84 0.46 657.96-2.59L657.96-2.59Q654.75-5.75 654.75-10.92L654.75-10.92Q654.75-15.69 657.39-18.79L657.39-18.79Q660.15-22.24 665.21-22.24L665.21-22.24Q670.26-22.24 672.91-19.2L672.91-19.2Q675.44-16.44 675.55-11.55ZM658.54-12.59L672.16-12.59Q671.99-15.69 670.15-17.7L670.15-17.7Q668.42-19.54 665.21-19.54L665.21-19.54Q662.45-19.54 660.49-17.47L660.49-17.47Q658.71-15.4 658.54-12.59L658.54-12.59ZM710.66-1.72L710.66-29.54Q710.66-30.46 711.23-30.86 711.81-31.26 712.27-31.26 712.73-31.26 713.02-31.21 713.3-31.15 713.59-30.86L713.59-30.86Q714.22-30.46 714.22-29.54L714.22-29.54 714.22-1.72Q714.22-0.86 713.65-0.43 713.07 0 712.38 0L712.38 0Q711.69 0 711.18-0.43 710.66-0.86 710.66-1.72L710.66-1.72ZM749.16-10.86L749.16-10.86Q749.16-12.93 749.82-15 750.48-17.07 751.86-18.74L751.86-18.74Q754.73-22.24 760.02-22.24 765.31-22.24 768.18-18.74L768.18-18.74Q770.88-15.4 770.88-10.92L770.88-10.92Q770.88-6.38 768.18-3.1L768.18-3.1Q765.31 0.46 760.02 0.46 754.73 0.46 751.86-3.1L751.86-3.1Q749.16-6.32 749.16-10.86ZM752.89-10.86L752.89-10.86Q752.89-9.48 753.27-7.93 753.64-6.38 754.62-5.06L754.62-5.06Q756.57-2.24 760.02-2.24L760.02-2.24Q763.64-2.24 765.42-5.06L765.42-5.06Q767.09-7.7 767.09-10.92L767.09-10.92Q767.09-14.25 765.42-16.67L765.42-16.67Q763.58-19.54 760.02-19.54L760.02-19.54Q756.57-19.54 754.62-16.67L754.62-16.67Q752.89-14.31 752.89-10.86ZM808.92-18.1L808.92-18.1Q811.16-22.24 816.74-22.24L816.74-22.24Q821.34-22.24 823.75-18.74L823.75-18.74Q825.93-15.52 825.93-10.8L825.93-10.8Q825.93-5.98 823.63-2.93L823.63-2.93Q821.16 0.52 816.68 0.46L816.68 0.46Q812.89 0.46 810.47-1.84L810.47-1.84Q809.61-2.59 808.92-3.62L808.92-3.62 808.92 6.72Q808.92 7.59 808.35 7.99 807.77 8.39 807.2 8.39L807.2 8.39Q806.51 8.39 805.93 7.93 805.36 7.47 805.36 6.72L805.36 6.72 805.36-20.17Q805.36-21.03 805.88-21.44 806.39-21.84 807.37-21.84L807.37-21.84Q809.27-21.84 808.92-18.1ZM810.33-17.01Q809.5-15.86 809.21-14.25 808.92-12.64 808.92-10.89 808.92-9.14 809.32-7.61 809.73-6.09 810.53-4.83L810.53-4.83Q812.37-2.18 815.82-2.24L815.82-2.24Q819.15-2.24 820.88-5L820.88-5Q822.2-7.24 822.2-10.92L822.2-10.92Q822.2-16.72 818.92-18.74L818.92-18.74Q817.72-19.48 815.79-19.51 813.86-19.54 812.51-18.85 811.16-18.16 810.33-17.01ZM880.35-11.55L880.35-11.55Q880.35-10.34 878.97-10.23L878.97-10.23 863.23-10.23Q863.46-4.37 867.82-2.64L867.82-2.64Q869.03-2.24 870.58-2.24L870.58-2.24Q873.8-2.24 877.13-4.6L877.13-4.6Q878.17-5.17 878.86-4.48L878.86-4.48Q879.2-4.14 879.09-3.79L879.09-3.79Q879.09-2.99 878.69-2.64L878.69-2.64Q875.53 0.52 870.35 0.46L870.35 0.46Q865.64 0.46 862.77-2.59L862.77-2.59Q859.55-5.75 859.55-10.92L859.55-10.92Q859.55-15.69 862.19-18.79L862.19-18.79Q864.95-22.24 870.01-22.24L870.01-22.24Q875.07-22.24 877.71-19.2L877.71-19.2Q880.24-16.44 880.35-11.55ZM863.34-12.59L876.96-12.59Q876.79-15.69 874.95-17.7L874.95-17.7Q873.23-19.54 870.01-19.54L870.01-19.54Q867.25-19.54 865.3-17.47L865.3-17.47Q863.51-15.4 863.34-12.59L863.34-12.59ZM918.91-20.11L918.91-18.16Q920.29-22.24 924.94-22.24L924.94-22.24Q925.81-22.24 926.24-21.75 926.67-21.26 926.67-20.72 926.67-20.17 926.24-19.68 925.81-19.2 924.66-19.2 923.51-19.2 922.36-18.74 921.21-18.28 920.46-17.41L920.46-17.41Q918.91-15.52 918.91-12.41L918.91-12.41 918.91-1.61Q918.91-0.8 918.33-0.4 917.76 0 917.3 0 916.84 0 916.55-0.09 916.27-0.17 915.98-0.46L915.98-0.46Q915.46-0.8 915.46-1.61L915.46-1.61 915.46-20.11Q915.46-20.86 915.98-21.35 916.5-21.84 917.27-21.84 918.05-21.84 918.48-21.35 918.91-20.86 918.91-20.11L918.91-20.11Z" opacity="1" transform="matrix(1,0,0,1,0,0)" fill="#ffffff" class="slogan-text-1" data-fill-palette-color="secondary" id="text-1"></path></svg></g></svg></g></svg></g></svg></g></svg></g></svg></g></svg></g><g mask="url(#602e08dc-8624-442e-a9dd-e68d4e47273a)"><g transform="matrix(5.108333328012153, 0, 0, 5.108333328012153, 75.16000000000001, 1.0000000000000142)"><svg xmlns="http://www.w3.org/2000/svg" xmlns:xlink="http://www.w3.org/1999/xlink" version="1.1" x="0" y="0" viewBox="1.9999999499999994 1.9999999499999994 48.00000005 48.00000005" style="enable-background:new 0 0 52 52;" xml:space="preserve" height="48.00000005" width="48.00000005" class="icon-none" data-fill-palette-color="accent" id="none"><g fill="#0d2438" data-fill-palette-color="accent"><g fill="#0d2438" data-fill-palette-color="accent"><path d="M12 50H3c-0.553 0-1-0.448-1-1v-9c0-0.552 0.447-1 1-1s1 0.448 1 1v8h8c0.553 0 1 0.448 1 1S12.553 50 12 50z" fill="#ffffff" data-fill-palette-color="accent"></path></g><g fill="#0d2438" data-fill-palette-color="accent"><path d="M3 50c-0.256 0-0.512-0.098-0.707-0.293-0.391-0.391-0.391-1.023 0-1.414l19-19c0.391-0.391 1.023-0.391 1.414 0s0.391 1.023 0 1.414l-19 19C3.512 49.902 3.256 50 3 50z" fill="#ffffff" data-fill-palette-color="accent"></path></g><g fill="#0d2438" data-fill-palette-color="accent"><path d="M3 13c-0.553 0-1-0.448-1-1V3c0-0.552 0.447-1 1-1h9c0.553 0 1 0.448 1 1s-0.447 1-1 1H4v8C4 12.552 3.553 13 3 13z" fill="#ffffff" data-fill-palette-color="accent"></path></g><g fill="#0d2438" data-fill-palette-color="accent"><path d="M22 23c-0.256 0-0.512-0.098-0.707-0.293l-19-19c-0.391-0.391-0.391-1.023 0-1.414s1.023-0.391 1.414 0l19 19c0.391 0.391 0.391 1.023 0 1.414C22.512 22.902 22.256 23 22 23z" fill="#ffffff" data-fill-palette-color="accent"></path></g><g fill="#0d2438" data-fill-palette-color="accent"><path d="M49 13c-0.553 0-1-0.448-1-1V4h-8c-0.553 0-1-0.448-1-1s0.447-1 1-1h9c0.553 0 1 0.448 1 1v9C50 12.552 49.553 13 49 13z" fill="#ffffff" data-fill-palette-color="accent"></path></g><g fill="#0d2438" data-fill-palette-color="accent"><path d="M30 23c-0.256 0-0.512-0.098-0.707-0.293-0.391-0.391-0.391-1.023 0-1.414l19-19c0.391-0.391 1.023-0.391 1.414 0s0.391 1.023 0 1.414l-19 19C30.512 22.902 30.256 23 30 23z" fill="#ffffff" data-fill-palette-color="accent"></path></g><g fill="#0d2438" data-fill-palette-color="accent"><path d="M49 50h-9c-0.553 0-1-0.448-1-1s0.447-1 1-1h8v-8c0-0.552 0.447-1 1-1s1 0.448 1 1v9C50 49.552 49.553 50 49 50z" fill="#ffffff" data-fill-palette-color="accent"></path></g><g fill="#0d2438" data-fill-palette-color="accent"><path d="M49 50c-0.256 0-0.512-0.098-0.707-0.293l-19-19c-0.391-0.391-0.391-1.023 0-1.414s1.023-0.391 1.414 0l19 19c0.391 0.391 0.391 1.023 0 1.414C49.512 49.902 49.256 50 49 50z" fill="#ffffff" data-fill-palette-color="accent"></path></g></g></svg></g></g></svg></g><defs></defs></svg><rect width="395.52" height="247.2" fill="none" stroke="none" visibility="hidden"></rect></g></svg></g></svg>